<?xml version="1.0" encoding="utf-8"?>
<!-- Generator: Adobe Illustrator 17.1.0, SVG Export Plug-In . SVG Version: 6.00 Build 0)  -->
<!DOCTYPE svg PUBLIC "-//W3C//DTD SVG 1.1//EN" "http://www.w3.org/Graphics/SVG/1.1/DTD/svg11.dtd">
<svg version="1.1" id="Layer_1" xmlns="http://www.w3.org/2000/svg" xmlns:xlink="http://www.w3.org/1999/xlink" x="0px" y="0px"
	 viewBox="0 0 284 314" enable-background="new 0 0 284 314" xml:space="preserve">
<path fill="none" stroke="#5FE" stroke-width="8" stroke-linecap="round" stroke-linejoin="round" stroke-miterlimit="10" d="
	M282,131.4C276,58.9,216.3,2,142.3,2H142C68.1,2,8.3,58.9,2.4,131.4c-0.4,4.3,4.1,4.7,6.2,1.5c10.7-16.2,30.3-25.7,51.4-24.7
	c30.7,1.4,55.6,26.3,57,57C118.5,199.7,91.1,228,57,228c-10.5,0-20.3-2.7-28.9-7.4c-1.6-0.9-3.6-0.6-4.8,0.8
	c-5.6,5.9-8.8,13.9-8.2,22.8c1,14.7,12.9,26.7,27.7,27.8c6.4,0.5,12.4-1.1,17.4-4c-0.1,1-0.2,2.1-0.2,3.1c0,16.6,13.4,30,30,30
	c9.4,0,17.8-3.8,23.3-10.6c3.8,12.2,15.2,21.6,28.7,21.6h0.3c13.5,0,24.9-9.4,28.7-21.6c5.5,6.8,13.9,10.9,23.3,10.9
	c16.6,0,30-13.6,30-30.1c0-1.1-0.1-2.2-0.2-3.2c5.1,3,11,4.5,17.4,4c14.7-1.1,26.6-13.1,27.7-27.8c0.6-8.8-2.6-16.9-8.2-22.8
	c-1.3-1.3-3.2-1.7-4.8-0.8c-8.6,4.7-18.4,7.4-28.9,7.4c-34.1,0-61.5-28.4-59.9-62.8c1.4-30.7,26.3-55.6,57-57.1
	c21.1-1,40.6,8.7,51.4,24.8C277.9,136.1,282.3,135.8,282,131.4z M152,251c-4.8,0-9-3.5-10-8c-1,4.5-5.2,8-10,8c-5.5,0-10-4.5-10-10
	c0-10,15-20,20-20s20,10,20,20C162,246.5,157.5,251,152,251z"/>
</svg>
